<?xml version="1.0" encoding="UTF-8"?>
<svg width="118px" height="84px" viewBox="0 0 118 84" version="1.1" xmlns="http://www.w3.org/2000/svg" xmlns:xlink="http://www.w3.org/1999/xlink">
    <!-- Generator: sketchtool 53.2 (72643) - https://sketchapp.com -->
    <title>F0786F50-89A9-4EC5-9B67-D185497847E4@2x</title>
    <desc>Created with sketchtool.</desc>
    <g id="Page-1" stroke="none" stroke-width="1" fill="none" fill-rule="evenodd">
        <g id="034-Tag-Manager-Delete" transform="translate(-661.000000, -433.000000)">
            <g id="delete-popup" transform="translate(470.000000, 327.000000)">
                <g id="img-delete" transform="translate(191.000000, 106.000000)">
                    <path d="M67.9999118,54.0000048 C67.4479111,54.0000048 66.9999142,53.5520078 66.9999142,53.0000072 L66.9999142,19.0000882 C66.9999142,18.4480876 67.4479111,18.0000906 67.9999118,18.0000906 L69.999907,18.0000906 C70.5519077,18.0000906 70.9999046,18.4480876 70.9999046,19.0000882 L70.9999046,53.0000072 C70.9999046,53.5520078 70.5519077,54.0000048 69.999907,54.0000048 L67.9999118,54.0000048 Z M47.9999595,54.0000048 C47.4479588,54.0000048 46.9999619,53.5520078 46.9999619,53.0000072 L46.9999619,19.0000882 C46.9999619,18.4480876 47.4479588,18.0000906 47.9999595,18.0000906 L49.9999547,18.0000906 C50.5519553,18.0000906 50.9999523,18.4480876 50.9999523,19.0000882 L50.9999523,53.0000072 C50.9999523,53.5520078 50.5519553,54.0000048 49.9999547,54.0000048 L47.9999595,54.0000048 Z M85.9998689,8.00011444 C86.5518695,8.00011444 86.9998665,8.44811142 86.9998665,9.00011206 L86.9998665,11.0001073 C86.9998665,11.5521079 86.5518695,12.0001049 85.9998689,12.0001049 L82.999876,12.0001049 L82.999876,57.9999952 C82.999876,61.3119991 80.3118941,63.9999809 76.9998903,63.9999809 L40.9999762,63.9999809 C37.6879723,63.9999809 34.9999905,61.3119991 34.9999905,57.9999952 L34.9999905,12.0001049 L31.9999976,12.0001049 C31.447997,12.0001049 31,11.5521079 31,11.0001073 L31,9.00011206 C31,8.44811142 31.447997,8.00011444 31.9999976,8.00011444 L44.9999666,8.00011444 L49.1999078,2.40015221 C50.1935578,1.07532626 52.3439433,0.000133514404 53.9999452,0.000133514404 L63.9999213,0.000133514404 C65.6559232,0.000133514404 67.8063087,1.07532626 68.7999587,2.40015221 L72.9998999,8.00011444 L85.9998689,8.00011444 Z M52.3999734,4.8001709 L49.9999547,8.00011444 L67.9999118,8.00011444 L65.5998931,4.8001709 C65.2678626,4.36023054 64.5510675,4.00183296 63.9999213,4.00012398 L53.9999452,4.00012398 C53.448799,4.00183296 52.7320039,4.36023054 52.3999734,4.8001709 Z M78.9998856,57.9999952 L78.9998856,12.0001049 L38.9999809,12.0001049 L38.9999809,57.9999952 C38.9999809,59.1039965 39.8959749,59.9999905 40.9999762,59.9999905 L76.9998903,59.9999905 C78.1038916,59.9999905 78.9998856,59.1039965 78.9998856,57.9999952 Z M57.9999356,54.0000048 C57.447935,54.0000048 56.999938,53.5520078 56.999938,53.0000072 L56.999938,19.0000882 C56.999938,18.4480876 57.447935,18.0000906 57.9999356,18.0000906 L59.9999309,18.0000906 C60.5519315,18.0000906 60.9999285,18.4480876 60.9999285,19.0000882 L60.9999285,53.0000072 C60.9999285,53.5520078 60.5519315,54.0000048 59.9999309,54.0000048 L57.9999356,54.0000048 Z" id="t" fill="#CF202E" fill-rule="nonzero"></path>
                    <text id="minus" font-family="FontAwesome5Pro-Solid, Font Awesome 5 Pro" font-size="18" font-weight="700" fill="#CFCFCF">
                        <tspan x="102" y="29">minus</tspan>
                    </text>
                    <text id="minus-copy" opacity="0.600000024" font-family="FontAwesome5Pro-Solid, Font Awesome 5 Pro" font-size="14" font-weight="700" fill="#CF202E">
                        <tspan x="45" y="80">minus</tspan>
                    </text>
                    <text id="plus" opacity="0.699999988" font-family="FontAwesome5Pro-Solid, Font Awesome 5 Pro" font-size="14" font-weight="700" fill="#CFCFCF">
                        <tspan x="82" y="83">plus</tspan>
                    </text>
                    <text id="circle" opacity="0.291836504" font-family="FontAwesome5Pro-Solid, Font Awesome 5 Pro" font-size="12" font-weight="700" fill="#CF202E">
                        <tspan x="11" y="24">circle</tspan>
                    </text>
                    <text id="circle" opacity="0.325803895" font-family="FontAwesome5Pro-Solid, Font Awesome 5 Pro" font-size="12" font-weight="700" fill="#CFCFCF">
                        <tspan x="100" y="53">circle</tspan>
                    </text>
                    <text id="plus" font-family="FontAwesome5Pro-Solid, Font Awesome 5 Pro" font-size="18" font-weight="700" fill="#CFCFCF">
                        <tspan x="0" y="56">plus</tspan>
                    </text>
                </g>
            </g>
        </g>
    </g>
</svg>